<?xml version="1.0" encoding="UTF-8"?>
<svg id="Layer_1" xmlns="http://www.w3.org/2000/svg" version="1.1" viewBox="0 0 512 512">
  <!-- Generator: Adobe Illustrator 29.8.1, SVG Export Plug-In . SVG Version: 2.1.1 Build 2)  -->
  <path d="M360.63,35.84c-7.03-19.03-31.52-65.68-67.24,2.62-14.72,28.14-32.8,69.97-25.75,125.82l-.22,11.12,90.1,30.41c53.67-13.88,27.78-103.12,3.11-169.96ZM336.76,188.35l-33.97-11.9.08-4.35c-2.65-21.85,4.16-38.21,9.71-49.22,13.47-26.72,22.7-8.47,25.35-1.03,9.3,26.15,19.06,61.06-1.17,66.49Z" fill="#fff"/>
  <path d="M204.94,38.47c-35.72-68.3-60.21-21.65-67.24-2.62-24.67,66.84-50.56,156.08,3.11,169.96l90.1-30.41-.22-11.12c7.04-55.85-11.04-97.68-25.75-125.82ZM199.85,178.58l-34.39,12.05c-20.48-5.5-10.61-40.85-1.19-67.32,2.68-7.54,12.03-26.02,25.66,1.04,5.62,11.15,12.52,27.72,9.83,49.84l.08,4.4Z" fill="#fff"/>
  <path d="M255.6,160.16c-109.23,0-203.87,79.72-203.87,173.13s63.9,173.08,203.87,173.08,204.66-79.67,204.66-173.08-95.43-173.13-204.66-173.13ZM255.69,483.08c-110.45,0-160.87-51.65-160.87-112.21s74.68-112.25,160.87-112.25,161.5,51.68,161.5,112.25-55.91,112.21-161.5,112.21Z" fill="#fff"/>
  <path d="M227.32,328.88c-.66-2.87-.08-5.85,6.55-13.78,6.63-7.93,5.44-10.97-2.94-5.93-4.5,2.7-9.63,4.11-14.8,4.8-2.55.34-5.12.54-7.69.63-1.25.04-2.48.03-3.73.03s-2.53.04-3.79-.02c-.92-.04-1.83-.13-2.73-.33-2.46-.55-4.66-1.85-6.98-2.79-.38-.15-.75-.33-1.13-.5-3.07-1.41-6.08-2.97-8.93-4.79-.26-.16-.51-.33-.77-.5-3.77-2.5-7.13-5.51-9.8-9.18-5.64-7.98-7.96-5.68-5.07,4.25,2.88,9.93,2.25,12.92.46,15.25-16.05,20.85-21.98,81.52,13.3,89.21,42.95,9.36,52.77-55.75,48.03-76.34Z" fill="#fff"/>
  <path d="M281.46,328.53c.66-2.87.08-5.85-6.55-13.78-6.63-7.93-5.44-10.97,2.94-5.93,4.5,2.7,9.63,4.11,14.8,4.8,2.55.34,5.12.54,7.69.63,1.25.04,2.48.03,3.73.03s2.53.04,3.79-.02c.92-.04,1.83-.13,2.73-.33,2.46-.55,4.66-1.85,6.98-2.79.38-.15.75-.33,1.13-.5,3.07-1.41,6.08-2.97,8.93-4.79.26-.16.51-.33.77-.5,3.77-2.5,7.13-5.51,9.8-9.18,5.64-7.98,7.96-5.68,5.07,4.25-2.88,9.93-2.25,12.92-.46,15.25,16.05,20.85,21.98,81.52-13.3,89.21-42.95,9.36-52.77-55.75-48.03-76.34Z" fill="#fff"/>
  <path d="M252.41,380.11c8.56,0,21.63,5.55,19.32,14.57-2.31,9.02-15.15,16.08-19.32,16.08s-13.42-6.59-17.93-15.33,6.94-15.33,17.93-15.33Z" fill="#fff"/>
  <path d="M389.82,347.05c10.23,15.78,11.88,26.18,10.23,28.65-2.66,3.99-21.18-.79-21.18-.79,4.35-8.87,7.51-18.28,9.29-28.09l1.66.23Z" fill="#fff"/>
  <path d="M378.87,374.91c8.47,20.49,9.61,34.79,7.65,36.47-3.76,3.24-19.47-7.28-25.03-10.4,6.93-8,12.8-16.73,17.38-26.07Z" fill="#fff"/>
  <path d="M361.49,400.98c1.61,18.74.37,33.12-2.26,35.27-4.4,3.58-19.58-7.09-25.6-10.79,10.45-7.01,19.86-15.24,27.86-24.47Z" fill="#fff"/>
  <path d="M333.63,425.45c-3.4,16.64-8.67,27.61-11.47,28.89-5.44,2.49-17.18-10.22-19.46-12.89h0c10.99-4.2,21.39-9.59,30.92-16Z" fill="#fff"/>
  <path d="M302.71,441.44h0c-12.53,17.94-20.99,26.59-26,27.05-4.94.54-14.92-12.52-18.11-16.75l-.04-.43c15.28-1.13,30.18-4.54,44.14-9.88Z" fill="#fff"/>
  <path d="M258.56,451.32l.04.43c-9.9,11.44-18.99,18.21-22.45,17.6-4.88-.87-10.95-14.03-14.69-19.87,12.41,2.21,24.87,2.76,37.11,1.84Z" fill="#fff"/>
  <path d="M221.45,449.48c-19.38,10.44-28.53,14.88-30.65,14.21-2.4-.75-6.04-14.2-8.2-26.97,12.64,6.24,25.72,10.42,38.85,12.75Z" fill="#fff"/>
  <path d="M153.48,417.86c9.33,7.66,19.09,13.91,29.13,18.86-18.56,11-29.8,12.51-31.67,10.62-2.08-2.11.91-22.09,2.35-29.26l.19-.22Z" fill="#fff"/>
  <path d="M153.48,417.86l-.19.22c-26.96,7.87-28.59,1.93-29.43.41-1.39-2.49,2.67-28.53,2.67-28.53h0c8.39,10.83,17.43,20.09,26.94,27.9Z" fill="#fff"/>
  <path d="M389.05,339.18c-.24,1.97-.54,3.92-.89,5.86-1.78,9.81-4.95,19.22-9.29,28.09-4.58,9.34-10.45,18.07-17.38,26.07-8,9.23-17.41,17.46-27.86,24.47-9.53,6.4-19.93,11.79-30.92,15.99-13.96,5.34-28.86,8.75-44.14,9.88-12.24.91-24.7.36-37.11-1.84-13.13-2.33-26.2-6.51-38.85-12.75-10.04-4.95-19.8-11.2-29.13-18.86-9.51-7.8-18.55-17.07-26.94-27.91-5.36-6.9-6.79-8.34-6.79-8.34" fill="none" stroke="#fff" stroke-linecap="round" stroke-linejoin="round" stroke-width="9.01"/>
  <path d="M126.53,389.97s-4.06,26.03-2.67,28.53c.84,1.53,2.47,7.46,29.43-.41-1.44,7.17-4.43,27.15-2.35,29.26,1.86,1.89,13.11.38,31.67-10.62,2.16,12.77,5.8,26.21,8.2,26.97,2.12.67,11.27-3.78,30.65-14.21,3.74,5.84,9.82,19,14.69,19.87,3.47.61,12.56-6.16,22.45-17.6,3.18,4.23,13.17,17.29,18.11,16.75,5.01-.46,13.47-9.12,26-27.05,2.28,2.68,14.02,15.38,19.46,12.89,2.79-1.28,8.07-12.25,11.47-28.89,6.02,3.71,21.2,14.37,25.6,10.79,2.63-2.15,3.88-16.53,2.26-35.27,5.56,3.12,21.27,13.64,25.03,10.4,1.96-1.68.82-15.98-7.65-36.47,0,0,18.52,4.78,21.18.79,1.65-2.47,0-12.88-10.23-28.65" fill="none" stroke="#fff" stroke-linecap="round" stroke-linejoin="round" stroke-width="5.41"/>
</svg>