<?xml version="1.0" encoding="UTF-8"?>
<svg id="Layer_1" xmlns="http://www.w3.org/2000/svg" version="1.1" viewBox="0 0 512 512">
  <!-- Generator: Adobe Illustrator 29.8.1, SVG Export Plug-In . SVG Version: 2.1.1 Build 2)  -->
  <path id="Head_and_Ears" d="M376.27,195.11c27.33-28.93,5.41-102.24-15.64-159.26-7.03-19.03-31.52-65.68-67.24,2.62-14.38,27.49-31.95,68.07-26.19,122.01-3.85-.2-7.72-.31-11.61-.31-8.29,0-16.5.47-24.59,1.36,6.11-54.46-11.6-95.38-26.07-123.05-35.72-68.3-60.21-21.65-67.24-2.62-22.38,60.62-45.75,139.67-9.87,164.21-45.93,32.13-76.1,80.5-76.1,133.24,0,93.41,63.9,173.08,203.87,173.08s204.66-79.67,204.66-173.08c0-55.52-33.71-106.2-83.99-138.18ZM312.59,122.89c13.47-26.72,22.7-8.47,25.35-1.03,6.98,19.62,14.22,44.18,8.84,57.51-14.05-6.19-28.95-11.02-44.43-14.3-.62-18.36,5.3-32.4,10.24-42.19ZM164.27,123.3c2.68-7.54,12.03-26.02,25.66,1.04,5,9.92,10.99,24.14,10.37,42.73-15.47,3.92-30.28,9.41-44.14,16.25-6.95-12.99.72-39.23,8.11-60.02ZM255.69,483.08c-110.45,0-160.87-51.65-160.87-112.21s74.68-112.25,160.87-112.25,161.5,51.68,161.5,112.25-55.91,112.21-161.5,112.21Z" fill="#fff"/>
  <path id="Mouth" d="M392.51,346.25c.03-.14.06-.28.08-.42.38-2.14.68-4.14.92-6.1.3-2.47-1.46-4.72-3.93-5.02-2.46-.3-4.72,1.46-5.02,3.93-.22,1.8-.5,3.64-.85,5.6-1.68,9.22-4.67,18.28-8.91,26.92-4.33,8.84-9.96,17.29-16.74,25.1-7.68,8.86-16.75,16.83-26.97,23.68-9.29,6.24-19.39,11.46-30.02,15.52-13.83,5.29-28.25,8.52-42.87,9.59-12.13.91-24.24.3-35.99-1.79-13.07-2.32-25.74-6.48-37.64-12.36-9.92-4.89-19.43-11.05-28.26-18.3-9.45-7.76-18.28-16.91-26.24-27.19-5.26-6.77-6.87-8.47-7.14-8.74-1.74-1.76-4.56-1.78-6.33-.06-1.78,1.72-1.82,4.57-.11,6.36.06.06,1.51,1.6,6.46,7.96.18.24.38.47.56.7-3.81,24.98-2.48,27.37-2.04,28.15l.07.14c2.11,4.13,7.21,7.49,28.29,1.9-.62,3.65-1.29,8.22-1.75,12.47-1.26,11.64-.24,13.76.91,14.92,3.6,3.65,16.34.25,31.61-8.26,1,5.28,2.2,10.41,3.4,14.49,2.39,8.15,4.12,10.21,5.98,10.8,2.75.86,7.65-.95,30.47-13.2.53.9,1.09,1.89,1.67,2.91,5.02,8.87,8.93,15.2,13.54,16.02.28.05.57.07.87.07,6.36,0,16.95-10.7,21.89-16.1,10.93,14,15.64,15.51,18.51,15.2,3.95-.36,10.47-3.65,26-25.41,4.64,4.95,14.15,13.85,20.33,11.02,4.6-2.1,9.3-14.81,12.16-27,11.09,7.07,20.63,12.5,25.49,8.54,4.64-3.78,4.16-22.84,3.61-32.41,10.92,6.52,19.58,11.08,23.74,7.5,3.93-3.38.68-19.48-5.02-34.73,7.41,1.51,16.44,2.39,19.04-1.51,3.02-4.53-1-17.2-9.79-30.95Z" fill="#fff"/>
  <path id="Nose" d="M252.41,380.11c8.56,0,21.63,5.55,19.32,14.57-2.31,9.02-15.15,16.08-19.32,16.08s-13.42-6.59-17.93-15.33,6.94-15.33,17.93-15.33Z" fill="#fff"/>
  <path id="Eye_L" d="M227.32,328.88c-.66-2.87-.08-5.85,6.55-13.78,6.63-7.93,5.44-10.97-2.94-5.93-4.5,2.7-9.63,4.11-14.8,4.8-2.55.34-5.12.54-7.69.63-1.25.04-2.48.03-3.73.03s-2.53.04-3.79-.02c-.92-.04-1.83-.13-2.73-.33-2.46-.55-4.66-1.85-6.98-2.79-.38-.15-.75-.33-1.13-.5-3.07-1.41-6.08-2.97-8.93-4.79-.26-.16-.51-.33-.77-.5-3.77-2.5-7.13-5.51-9.8-9.18-5.64-7.98-7.96-5.68-5.07,4.25,2.88,9.93,2.25,12.92.46,15.25-16.05,20.85-21.98,81.52,13.3,89.21,42.95,9.36,52.77-55.75,48.03-76.34Z" fill="#fff"/>
  <path id="Eye_R" d="M281.46,328.53c.66-2.87.08-5.85-6.55-13.78-6.63-7.93-5.44-10.97,2.94-5.93,4.5,2.7,9.63,4.11,14.8,4.8,2.55.34,5.12.54,7.69.63,1.25.04,2.48.03,3.73.03s2.53.04,3.79-.02c.92-.04,1.83-.13,2.73-.33,2.46-.55,4.66-1.85,6.98-2.79.38-.15.75-.33,1.13-.5,3.07-1.41,6.08-2.97,8.93-4.79.26-.16.51-.33.77-.5,3.77-2.5,7.13-5.51,9.8-9.18,5.64-7.98,7.96-5.68,5.07,4.25-2.88,9.93-2.25,12.92-.46,15.25,16.05,20.85,21.98,81.52-13.3,89.21-42.95,9.36-52.77-55.75-48.03-76.34Z" fill="#fff"/>
</svg>